<mxfile host="app.diagrams.net" modified="2021-07-13T09:35:40.196Z" agent="5.0 (Macintosh; Intel Mac OS X 10_15_7) AppleWebKit/537.36 (KHTML, like Gecko) Chrome/86.0.4240.193 Safari/537.36" etag="4Z2aWkfRUy-ieYskTtsn" version="14.8.6" type="github">
  <diagram id="nZ9754AJKYldefDBQWgk" name="Page-1">
    <mxGraphModel dx="946" dy="536" grid="1" gridSize="10" guides="1" tooltips="1" connect="1" arrows="1" fold="1" page="1" pageScale="1" pageWidth="827" pageHeight="1169" math="0" shadow="0">
      <root>
        <mxCell id="0" />
        <mxCell id="1" parent="0" />
        <mxCell id="i3HkHmoMITNhaDgwmx76-11" style="edgeStyle=orthogonalEdgeStyle;rounded=0;orthogonalLoop=1;jettySize=auto;html=1;exitX=0.5;exitY=1;exitDx=0;exitDy=0;entryX=0.5;entryY=0;entryDx=0;entryDy=0;" parent="1" source="i3HkHmoMITNhaDgwmx76-1" target="i3HkHmoMITNhaDgwmx76-3" edge="1">
          <mxGeometry relative="1" as="geometry" />
        </mxCell>
        <mxCell id="i3HkHmoMITNhaDgwmx76-1" value="User.class文件" style="rounded=1;whiteSpace=wrap;html=1;fillColor=#d5e8d4;strokeColor=#82b366;" parent="1" vertex="1">
          <mxGeometry x="178" y="30" width="120" height="60" as="geometry" />
        </mxCell>
        <mxCell id="i3HkHmoMITNhaDgwmx76-3" value="" style="rounded=1;whiteSpace=wrap;html=1;fillColor=#ffe6cc;strokeColor=#d79b00;" parent="1" vertex="1">
          <mxGeometry x="65.5" y="180" width="345" height="210" as="geometry" />
        </mxCell>
        <mxCell id="i3HkHmoMITNhaDgwmx76-13" style="edgeStyle=orthogonalEdgeStyle;rounded=0;orthogonalLoop=1;jettySize=auto;html=1;exitX=1;exitY=0.5;exitDx=0;exitDy=0;entryX=0;entryY=0.5;entryDx=0;entryDy=0;" parent="1" source="i3HkHmoMITNhaDgwmx76-4" target="i3HkHmoMITNhaDgwmx76-5" edge="1">
          <mxGeometry relative="1" as="geometry" />
        </mxCell>
        <mxCell id="i3HkHmoMITNhaDgwmx76-4" value="Order.class的java.lang.Class对象" style="rounded=1;whiteSpace=wrap;html=1;fillColor=#f5f5f5;strokeColor=#666666;fontColor=#333333;" parent="1" vertex="1">
          <mxGeometry x="100" y="240" width="120" height="110" as="geometry" />
        </mxCell>
        <mxCell id="i3HkHmoMITNhaDgwmx76-5" value="Order.class&lt;br&gt;的数据结构" style="rounded=1;whiteSpace=wrap;html=1;fillColor=#dae8fc;strokeColor=#6c8ebf;" parent="1" vertex="1">
          <mxGeometry x="250" y="240" width="120" height="110" as="geometry" />
        </mxCell>
        <mxCell id="i3HkHmoMITNhaDgwmx76-6" value="运行时数据区" style="text;html=1;strokeColor=none;fillColor=none;align=center;verticalAlign=middle;whiteSpace=wrap;rounded=0;" parent="1" vertex="1">
          <mxGeometry x="185" y="360" width="110" height="20" as="geometry" />
        </mxCell>
        <mxCell id="i3HkHmoMITNhaDgwmx76-7" value="堆区" style="text;html=1;strokeColor=none;fillColor=none;align=center;verticalAlign=middle;whiteSpace=wrap;rounded=0;" parent="1" vertex="1">
          <mxGeometry x="140" y="200" width="40" height="20" as="geometry" />
        </mxCell>
        <mxCell id="i3HkHmoMITNhaDgwmx76-8" value="方法区（元空间）" style="text;html=1;strokeColor=none;fillColor=none;align=center;verticalAlign=middle;whiteSpace=wrap;rounded=0;" parent="1" vertex="1">
          <mxGeometry x="250" y="210" width="140" height="10" as="geometry" />
        </mxCell>
        <mxCell id="i3HkHmoMITNhaDgwmx76-12" value="&lt;pre&gt;ClassLoader&lt;/pre&gt;" style="text;whiteSpace=wrap;html=1;" parent="1" vertex="1">
          <mxGeometry x="250" y="110" width="90" height="40" as="geometry" />
        </mxCell>
      </root>
    </mxGraphModel>
  </diagram>
</mxfile>
